<?xml version="1.0" encoding="UTF-8"?>
<svg version="1.1" viewBox="0 0 1024 1024" width="1024" height="1024" xmlns="http://www.w3.org/2000/svg">
<path transform="translate(491,104)" d="m0 0h45l28 2 28 5 29 7 17 5 24 9 17 7 25 12 23 13 21 14 19 14 10 8 14 12 9 8 7 8 9 9 7 8 11 13 13 17 12 17 13 20 14 27 7 14 12 30 11 34 6 24 6 36 2 29v28l-2 32-4 28-6 28-7 25-11 31-13 28-9 16-11 18-11 16-11 15-9 11-18 20-21 21-8 7-14 11-13 10-19 13-13 8-15 9-16 8-19 9-21 8-20 7-27 8-28 6-32 4-12 1h-57l-36-4-28-6-32-9-34-12-27-12-21-11-17-10-15-10-17-12-17-14-13-11-12-12-6-5-7-8-11-12-11-14-12-16-10-15-15-26-14-29-12-31-7-23-7-29-4-22-2-23-1-18v-38l2-26 5-32 7-29 4-15 7-19 10-25 11-23 13-23 12-19 14-19 7-10h2l2-4 9-10 7-8 23-23 14-13 11-9 12-9 13-9 11-7 13-8 19-11 24-11 20-8 8-3 28-9 25-6 29-5z" fill="#FDFDFC"/>
<path transform="translate(430,408)" d="m0 0h166l2 2 1 189 198 1 5 5 8 18 8 16 8 17-1 5-2 2h-30l1 33v96l-4 4-2 1h-162l-4-2-1-2v-173h-22l-1 174-5 3h-358l-5-5v-129h-30l-3-3 1-7 25-50 3-3h202v-190z" fill="#15364E"/>
<path transform="translate(498,164)" d="m0 0h29l18 4 13 5 17 9 14 11 8 8 10 13 8 14 6 16 3 15 1 9v16l-3 19-5 15-9 17-8 11-12 13-10 8-15 9-15 6-16 4-8 1h-24l-17-3-18-6-15-8-14-11-12-12-11-16-7-14-5-16-2-11v-28l3-17 6-16 9-16 9-11 5-6 11-9 11-8 19-9 19-5z" fill="#E5A93D"/>
<path transform="translate(299,310)" d="m0 0h18l15 3 10 4 14 8 13 13 8 11 6 14 3 13 1 13v22l-2 17-5 16-8 16-11 14-10 9-14 8-15 5-7 1h-13l-16-3-16-8-11-8-9-9-10-15-6-14-4-15-1-14v-19l1-16 4-16 7-14 9-11 7-7 15-10 16-6z" fill="#15364E"/>
<path transform="translate(702,319)" d="m0 0h18l12 2 16 7 9 6 10 9 7 8 6 10 5 14 2 9 1 11 4 6 3 12 5 5 2 4-1 6-5 6-2 1h-17l-3 9-6 11-9 11-12 9-11 5-16 4h-17l-13-3-10-4-12-8-10-10-9-14-4-9-17-1-5-3-2-4v-8l4-5 2-1 3-12 4-5 2-18 4-13 7-13 7-9h2l2-4 10-8 8-5 16-6z" fill="#15364E"/>
<path transform="translate(238,619)" d="m0 0 147 1v157l-134 1-1-1v-114l86-1 5-3 1-9-4-5-112-1 3-9z" fill="#FCFCFB"/>
<path transform="translate(784,619)" d="m0 0 4 4 9 19v2l-110 1-5 5v6l4 6 88 1v114l-1 1h-132l-1-1v-157z" fill="#FDFDFC"/>
<path transform="translate(447,619)" d="m0 0h131l1 3v33l-2 1h-33l-8 2-4 4-2 6v24l3 9 6 4 39 1 1 2v69l-1 1-131-1v-70l1-1 40-1 5-3 3-4 1-6v-20l-2-10-5-5-5-1-38-1z" fill="#E5A93E"/>
<path transform="translate(670,500)" d="m0 0h6l15 52 3 11 1 1 1-4h2v-7l5-25v-7l-2-4v-9l4-5 5-2 8 1 5 4 1 2v9l-2 3v8l7 34 1 3 5-19 9-32 3-14h10l16 4 14 7 9 7 7 7 7 10 5 13 2 12v24l-4 4h-111l-1-2-1 2h-87l-3-3v-22l2-14 5-13 7-10 5-6 13-10 12-6 9-3z" fill="#15364E"/>
<path transform="translate(266,501)" d="m0 0h5l9 29 8 28 4 13 7-35v-8l-1-2v-9l4-5 3-2h7l5 3 3 4v9l-1 2v8l6 27v7h2l1-8 16-56 2-5 11 1 16 5 14 8 10 9 6 7 6 10 4 12 1 7v24l-3 4h-113l-2-5v5h-88l-3-4v-18l2-16 5-13 6-9 7-8 12-9 13-6z" fill="#15364E"/>
<path transform="translate(498,164)" d="m0 0h29l18 4 13 5 17 9 14 11 8 8 10 13 8 14 6 16 3 15 1 9v16l-3 19-5 15-9 17-8 11-12 13-10 8-15 9-15 6-16 4-8 1h-24l-17-3-18-6-15-8-14-11-12-12-11-16-7-14-5-16-2-11v-28l3-17 6-16 9-16 9-11 5-6 11-9 11-8 19-9 19-5zm6 19-18 3-14 5-11 6-9 7-9 8-10 13-9 17-4 13-2 12v15l3 17 6 16 8 14 8 10h2v2h2v2l13 10 15 8 15 5 14 2h16l18-3 16-6 13-8 11-9 10-12 9-15 5-12 3-15v-24l-3-15-5-13-7-12-9-11-9-9-13-9-10-5-15-5-13-2z" fill="#15364E"/>
<path transform="translate(270,363)" d="m0 0 7 6 9 9 12 7 16 5 6 1h22l12-3h3l6 12 4 5v8l-4 19-6 14-8 11-9 9-14 8-12 3h-12l-14-4-12-7-11-11-8-13-5-13-4-21 2-5 7-11 8-17z" fill="#FCFCFC"/>
<path transform="translate(238,619)" d="m0 0 147 1v157h-23v-102h-108l-2-1-1 12h-1v-23l86-1 5-3 1-9-4-5-112-1 3-9z" fill="#D5CEBE"/>
<path transform="translate(687,663)" d="m0 0h87v114l-1 1-51-1 1-18-6 1h-13l-8-3v-2l-4-2-5-5-5-8v-21l6-9 8-7 11-4h15v-24l-31-1-3-3z" fill="#D5CDBE"/>
<path transform="translate(447,467)" d="m0 0h131l1 1v60h-132z" fill="#E5A93D"/>
<path transform="translate(448,547)" d="m0 0h126l4 1 1 36v15l-3 1-129-1v-51z" fill="#E6A93C"/>
<path transform="translate(371,815)" d="m0 0h341l6 3 2 4v6l-5 5-2 1h-347l-5-5-1-6 3-6 1-1z" fill="#17364E"/>
<path transform="translate(721,340)" d="m0 0 7 1 12 6 9 7 3 2v2h2l7 11 5 12 2 12 1 11 6 9v2l-22 1h-81l-26-1 5-8 3-4 1-16 3-12 6-11 9-10 7-6 12-6 9-1 1 41 2 5 10 1 5-4 1-3z" fill="#E5A93F"/>
<path transform="translate(670,500)" d="m0 0h6l15 52 9 32v4h-87l-3-3v-22l2-14 5-13 7-10 5-6 13-10 12-6 9-3z" fill="#15364E"/>
<path transform="translate(266,501)" d="m0 0h5l9 29 8 28 8 27v3h-88l-3-4v-18l2-16 5-13 6-9 7-8 12-9 13-6z" fill="#15364E"/>
<path transform="translate(509,214)" d="m0 0h6l4 2 2 3 1 8 16 8 4 5 1 5-4 6-1 1h-9l-8-4-6-1-10 1-4 3 1 8 6 4 18 6 9 4 6 4 3 5 2 9v12h-2l-1 4-6 8-5 3-1 2-5 3-4 1-2 10-4 3h-8l-4-3-2-10-5-3-7-3-2-1v-2l-4-2-5-6 1-7 4-3h6l10 5 10 2h8l5-1 3-6-1-7-7-3-11-3-15-7-4-2v-2l-4-1-1-5h-2l-2-9 1-12 7-9 6-5 10-3 1-10z" fill="#F9F8F7"/>
<path transform="translate(405,619)" d="m0 0h22l1 1v157l-1 1h-22l-1-1v-157z" fill="#FAF9F7"/>
<path transform="translate(238,619)" d="m0 0 143 1v1l-18 1-1 33h-18l-1 2-2-9-3-3-112-1 3-9z" fill="#FCFCFB"/>
<path transform="translate(593,230)" d="m0 0 3 4 5 12 3 11 1 7v24l-4 18-8 16-9 13-9 10-11 8-12 7-18 6-14 2h-16l-18-3-3-1-6-11-5-10 5 1 14 5 13 2h16l17-4 11-5 12-7 8-7 1-2h2l2-4 7-10 6-14 3-14v-20l-2-11-5-14-2-5 13-1z" fill="#C17308"/>
<path transform="translate(504,183)" d="m0 0h17l17 3 15 6-1 9-2 5-4-1-13-5-15-2h-17l-16 4-12 6h-3v2l-9 6-5 3-9 10-2 6-9 19-2 12v19l2 11 3 8 3 10-1 4-5 9-3-1-8-15-5-16-2-13v-15l3-16 5-13 7-13 8-10 8-9 13-10 17-8 17-4z" fill="#F9F8F6"/>
<path transform="translate(721,340)" d="m0 0 7 1 12 6 9 7 3 2v2h2l7 11 5 12 2 12 1 11 6 9v2l-22 1h-33l-1-1v-28h-3l3-3 1-3z" fill="#C17308"/>
<path transform="translate(305,700)" d="m0 0h16l3 1v2l6 2 5 4 7 13v16l-4 8-8 10-7 3h-17l-5-2-7-2-6-7v-2h-2l-4-10v-14l6-12 5-6 3-2z" fill="#E5A93D"/>
<path transform="translate(707,699)" d="m0 0 14 1 8 4 7 7 5 9 1 4v8l-3 10-3 6-9 7-6 3-5 1h-11l-11-4-6-5-6-10v-21l6-9 8-7z" fill="#C17308"/>
<path transform="translate(354,388)" d="m0 0h3l6 12 4 5v8l-4 19-6 14-8 11-9 9-12 7h-2v-79l-3-2 19-1z" fill="#D5CEBE"/>
<path transform="translate(640,620)" d="m0 0h10l4 2v153l-1 2-12 1-1-1z" fill="#D5CDBE"/>
<path transform="translate(710,501)" d="m0 0 8 1 5 4 1 2v9l-2 3v8l7 34 1 6-5 19v1h-23l-4-7-4-14 1-3 1-4h2v-7l5-25v-7l-2-4v-9l4-5z" fill="#C17308"/>
<path transform="translate(512,470)" d="m0 0 5 2 7 6 7 3 1 2v8l-4 2-8 1 1 5 3 9-2 4h-5l-3-3v-3h-5l-1 5-6 1-1-1v-7l3-7v-4l-5 1-4 8-3 1h-8l-4-1-10 1-5-4-1-12h-16v-15h59z" fill="#FAFAF9"/>
<path transform="translate(305,510)" d="m0 0h7l5 3 3 4v9l-1 2v8l6 27 1 10-4 15h-24l-3-6-2-3-1-6 4-23 3-14v-8l-1-2v-9l4-5z" fill="#C17308"/>
<path transform="translate(668,435)" d="m0 0h87l-1 4-4 6-3 4h-2v2l-8 6-10 5-9 2h-12l-13-4-10-6-6-5-8-11z" fill="#FAF9F7"/>
<path transform="translate(447,619)" d="m0 0h113v1l-101 1-1 1 93 1 1 2v11l-10 2-92 1v12l-1 2 36 1v1h-38z" fill="#FDFDFD"/>
<path transform="translate(447,427)" d="m0 0h12l17 1v1l-19 1 1 2 46 1h24l23 1 2 3v10l-2 1h-103l-1-1z" fill="#FCFCFB"/>
<path transform="translate(723,621)" d="m0 0h61 3l10 21v2h-108v-1l34-1z" fill="#D5CEBE"/>
<path transform="translate(770,282)" d="m0 0 6 1 4 4v13h12l5 3 1 2v7l-5 5h-13v11l-2 4-3 2h-7l-5-5v-12h-13l-5-3-1-2v-8l5-4h14v-13l4-4z" fill="#15364E"/>
<path transform="translate(540,706)" d="m0 0h38l1 2v69l-1 1h-11l-7-1-1-2v-29l1-39h-20z" fill="#C17308"/>
<path transform="translate(339,228)" d="m0 0 7 1 4 3v13h13l5 5v6l-4 5-7 1-7-1v12l-4 5-7 1-5-4-1-2v-12h-13l-5-5v-6l5-5h13v-9l2-5z" fill="#15364E"/>
<path transform="translate(677,228)" d="m0 0 7 1 4 4v12h13l4 4v8l-6 5-11-1v13l-4 4-7 1-5-3-1-3v-12l-4 1h-7l-5-3-2-4 1-7 4-3h13v-9l2-5z" fill="#15364E"/>
<path transform="translate(448,553)" d="m0 0 15 1h88l1 1v11l-1 1-103 1z" fill="#FDFDFC"/>
<path transform="translate(707,699)" d="m0 0 14 1v13l-3 10-6 9-8 7-12 7-6 1-4-7v-21l6-9 8-7z" fill="#E6A93C"/>
<path transform="translate(560,467)" d="m0 0h18l1 1v60h-20v-32z" fill="#C17308"/>
<path transform="translate(459,427)" d="m0 0h119l1 1-1 20h-27l1-2v-9l-1-3h-53l-40-1-2-3z" fill="#E5AD49"/>
<path transform="translate(692,342)" d="m0 0h6v39l-1 19-1 4h-5l-2-3v-49l-6 2-8 8-4 6-3 9-4 10-2 14-3 2h-3l-1-3v-13l3-12 6-11 9-10 7-6z" fill="#FAF9F8"/>
<path transform="translate(549,547)" d="m0 0h25l4 1 1 36v15l-3 1-16-1-1-2v-47l1-2h-11z" fill="#C17308"/>
<path transform="translate(510,715)" d="m0 0h6l6 5 2 3 5 2 4 5-1 6h-2v2h-11l4 11v7l-7 1-2-4-4 1-3 3-5-1-1-1v-7h2l2-10h-11l-2-2v-6l5-6 11-8z" fill="#F7F5F2"/>
<path transform="translate(704,522)" d="m0 0 10 3v63h-12l-4-7-4-14 1-3 1-4h2v-7z" fill="#E5AA40"/>
<path transform="translate(447,467)" d="m0 0h77v1h-9l2 4-5-1-5 2h-58l-1 14 16-1 1 1v9h-1l-1-7-4-1v40h-12z" fill="#EEC370"/>
<path transform="translate(447,707)" d="m0 0h20v1l-7 1-1 67h55v1h-67z" fill="#EDC370"/>
<path transform="translate(300,530)" d="m0 0 1 2 10 2v54h-13l-3-6-2-3-1-6 4-23z" fill="#E5A93E"/>
<path transform="translate(440,309)" d="m0 0 4 5 5 10 11 11 10 7 5 5 7 13 1 3-5-1-16-8-11-8-4-3v-2h-2v-2h-2l-8-10 2-6 4-6z" fill="#EBC272"/>
<path transform="translate(560,619)" d="m0 0h18l1 3v33l-2 1-17-1-1-5v-18z" fill="#C17308"/>
<path transform="translate(720,437)" d="m0 0h32l1 4-6 8h-2v2l-8 6-10 5-9 2h-12v-1h11l1-13z" fill="#D5CDBD"/>
<path transform="translate(448,547)" d="m0 0h32l79 1v1l-104 1v2l89 1v1l-38 1h-43l-14-1v13h100v1l-100 1v28l110 1v1h-112v-51z" fill="#D5C2A1"/>
<path transform="translate(447,619)" d="m0 0h113v1l-101 1-1 1 93 1v2l-94-1-8-2-1 15 10-1h92v1l-8 1-92 1v12l-1 2 36 1v1h-38z" fill="#D5CEBF"/>
<path transform="translate(459,427)" d="m0 0h119l1 1-1 20h-27v-1h9v-19h-101z" fill="#C17308"/>
<path transform="translate(447,467)" d="m0 0h77v1h-9l2 4-5-1-5 2h-58l-1 14h-1z" fill="#D3C9B5"/>
<path transform="translate(312,815)" d="m0 0h9l5 4 1 2v8l-5 5-2 1h-8l-5-4-1-2v-9z" fill="#15364E"/>
<path transform="translate(449,675)" d="m0 0h28l1 1v10h-31v-10z" fill="#D0B892"/>
<path transform="translate(640,620)" d="m0 0h2l1 157h-3z" fill="#E9E6DE"/>
<path transform="translate(549,676)" d="m0 0h30v9l-1 1h-29z" fill="#C17308"/>
<path transform="translate(456,568)" d="m0 0h3l1 30h-9l-2-1v-28z" fill="#EEC370"/>
<path transform="translate(732,358)" d="m0 0h1l1 12v30l-2 4h-5l-1-1v-27z" fill="#F1EDE5"/>
<path transform="translate(449,567)" d="m0 0h100v1l-100 1v28l110 1v1h-112v-23l1-8z" fill="#D5CEBF"/>
<path transform="translate(744,499)" d="m0 0 3 1-1 10-9 33-5 17-2 6-2-4v-5l3-7 7-30 5-18z" fill="#D4CBB9"/>
<path transform="translate(321,739)" d="m0 0 18 2-1 5-7 8-10 4-1-2v-14z" fill="#C17308"/>
<path transform="translate(447,619)" d="m0 0h113v1l-101 1-1 1 93 1v2l-94-1-8-2v-2z" fill="#D5CDBD"/>
<path transform="translate(447,707)" d="m0 0h12v1l-9 1v27l-1 40h65v1h-67z" fill="#D4CDBE"/>
<path transform="translate(459,468)" d="m0 0h16l33 1-1 3h-49l-2-2z" fill="#EDC06A"/>
<path transform="translate(695,341)" d="m0 0h6v44l-2 1-1 15-2 2 1-24 1-37z" fill="#D0B996"/>
<path transform="translate(463,677)" d="m0 0h15v9l-11-1-10-2-2-1 1-4z" fill="#E4A73D"/>
<path transform="translate(450,638)" d="m0 0h9l1 16h-9l-2-1v-14z" fill="#EEC370"/>
<path transform="translate(447,427)" d="m0 0h12l17 1v1l-19 1 1 2 40 1v1h-49l-1 13h-1z" fill="#D4CDBD"/>
<path transform="translate(457,486)" d="m0 0h7l1 1v9h-1l-1-7h-13v34l1 3 8 1v1h-12v-41z" fill="#CFB389"/>
<path transform="translate(663,387)" d="m0 0h1v13l-4 4-5 1-2 5-2 3 48 1v1l-11 1h-16l-26-1 5-8 4-7 1 3 5-2z" fill="#D4BD98"/>
<path transform="translate(551,436)" d="m0 0 2 1v10l-2 1h-103v-1l101-1 1-1z" fill="#D5CEBF"/>
<path transform="translate(549,676)" d="m0 0h9l2 1v9h-11z" fill="#E3AE4F"/>
<path transform="translate(447,638)" d="m0 0 1 2h2v11l-1 2 36 1v1h-38z" fill="#D1BFA1"/>
<path transform="translate(451,677)" d="m0 0h12v1h-7v3l11 3v1h-18v-7z" fill="#EEC370"/>
<path transform="translate(440,309)" d="m0 0 3 4 1 6-5 5-1 5 5 5v2h2l4 5v2h-2v-2h-2v-2h-2l-8-10 2-6 4-6z" fill="#D1BEA0"/>
<path transform="translate(553,192)" d="m0 0 11 6 10 8-1 3-1-3-4-2-6-4-5-3h-2l-3 7-2 1z" fill="#D5AF71"/>
<path transform="translate(497,467)" d="m0 0h27v1h-9l2 4-5-1-5 1 1-3h-12z" fill="#D5CDBD"/>
<path transform="translate(476,351)" d="m0 0 4 5 3 5v2l-5-1-6-3 3-1-3-2v-2z" fill="#E2B25B"/>
<path transform="translate(689,347)" d="m0 0h1v54h-1v-49l-3-1z" fill="#D5CEBF"/>
<path transform="translate(459,468)" d="m0 0h4v2h13v1l-18 1-2-2z" fill="#EAB85A"/>
<path transform="translate(730,554)" d="m0 0h2l-1 11-2 1-1-9z" fill="#DFD5C5"/>
<path transform="translate(519,218)" d="m0 0 2 1 1 8 10 5-2 1-10-4z" fill="#D6CDB9"/>
<path transform="translate(553,192)" d="m0 0 6 3-2 2h-2l-3 7-2 1z" fill="#D9C197"/>
<path transform="translate(440,309)" d="m0 0 3 4 1 6-5 5-1 2-2-1 5-8z" fill="#D5CEBF"/>
</svg>
